<?xml version="1.0" encoding="UTF-8" standalone="no"?>
<!-- Created with Inkscape (http://www.inkscape.org/) -->

<svg
   xmlns:dc="http://purl.org/dc/elements/1.1/"
   xmlns:cc="http://creativecommons.org/ns#"
   xmlns:rdf="http://www.w3.org/1999/02/22-rdf-syntax-ns#"
   xmlns:svg="http://www.w3.org/2000/svg"
   xmlns="http://www.w3.org/2000/svg"
   xmlns:sodipodi="http://sodipodi.sourceforge.net/DTD/sodipodi-0.dtd"
   xmlns:inkscape="http://www.inkscape.org/namespaces/inkscape"
   width="744.09448819"
   height="1052.3622047"
   id="svg2"
   version="1.1"
   inkscape:version="0.48.3.1 r9886"
   sodipodi:docname="drawing.pdf">
  <defs
     id="defs4">
    <marker
       inkscape:stockid="Arrow2Lend"
       orient="auto"
       refY="0.0"
       refX="0.0"
       id="Arrow2Lend"
       style="overflow:visible;">
      <path
         id="path4242"
         style="fill-rule:evenodd;stroke-width:0.62500000;stroke-linejoin:round;"
         d="M 8.7185878,4.0337352 L -2.2072895,0.016013256 L 8.7185884,-4.0017078 C 6.9730900,-1.6296469 6.9831476,1.6157441 8.7185878,4.0337352 z "
         transform="scale(1.1) rotate(180) translate(1,0)" />
    </marker>
    <marker
       inkscape:stockid="Arrow2Lstart"
       orient="auto"
       refY="0.0"
       refX="0.0"
       id="Arrow2Lstart"
       style="overflow:visible">
      <path
         id="path4239"
         style="fill-rule:evenodd;stroke-width:0.62500000;stroke-linejoin:round"
         d="M 8.7185878,4.0337352 L -2.2072895,0.016013256 L 8.7185884,-4.0017078 C 6.9730900,-1.6296469 6.9831476,1.6157441 8.7185878,4.0337352 z "
         transform="scale(1.1) translate(1,0)" />
    </marker>
    <marker
       inkscape:stockid="Arrow2Send"
       orient="auto"
       refY="0.0"
       refX="0.0"
       id="Arrow2Send"
       style="overflow:visible;">
      <path
         id="path4254"
         style="fill-rule:evenodd;stroke-width:0.62500000;stroke-linejoin:round;"
         d="M 8.7185878,4.0337352 L -2.2072895,0.016013256 L 8.7185884,-4.0017078 C 6.9730900,-1.6296469 6.9831476,1.6157441 8.7185878,4.0337352 z "
         transform="scale(0.3) rotate(180) translate(-2.3,0)" />
    </marker>
    <marker
       inkscape:stockid="Arrow2Mstart"
       orient="auto"
       refY="0.0"
       refX="0.0"
       id="Arrow2Mstart"
       style="overflow:visible">
      <path
         id="path4245"
         style="fill-rule:evenodd;stroke-width:0.62500000;stroke-linejoin:round"
         d="M 8.7185878,4.0337352 L -2.2072895,0.016013256 L 8.7185884,-4.0017078 C 6.9730900,-1.6296469 6.9831476,1.6157441 8.7185878,4.0337352 z "
         transform="scale(0.6) translate(0,0)" />
    </marker>
    <marker
       inkscape:stockid="Arrow1Lend"
       orient="auto"
       refY="0.0"
       refX="0.0"
       id="Arrow1Lend"
       style="overflow:visible;">
      <path
         id="path3876"
         d="M 0.0,0.0 L 5.0,-5.0 L -12.5,0.0 L 5.0,5.0 L 0.0,0.0 z "
         style="fill-rule:evenodd;stroke:#000000;stroke-width:1.0pt;"
         transform="scale(0.8) rotate(180) translate(12.5,0)" />
    </marker>
    <marker
       inkscape:stockid="Arrow1Lstart"
       orient="auto"
       refY="0.0"
       refX="0.0"
       id="Arrow1Lstart"
       style="overflow:visible">
      <path
         id="path3873"
         d="M 0.0,0.0 L 5.0,-5.0 L -12.5,0.0 L 5.0,5.0 L 0.0,0.0 z "
         style="fill-rule:evenodd;stroke:#000000;stroke-width:1.0pt"
         transform="scale(0.8) translate(12.5,0)" />
    </marker>
    <filter
       inkscape:collect="always"
       id="filter4683">
      <feGaussianBlur
         inkscape:collect="always"
         stdDeviation="1.0138516"
         id="feGaussianBlur4685" />
    </filter>
  </defs>
  <sodipodi:namedview
     id="base"
     pagecolor="#ffffff"
     bordercolor="#666666"
     borderopacity="1.0"
     inkscape:pageopacity="0.0"
     inkscape:pageshadow="2"
     inkscape:zoom="1.7902027"
     inkscape:cx="36.839246"
     inkscape:cy="917.14286"
     inkscape:document-units="px"
     inkscape:current-layer="layer1"
     showgrid="false"
     inkscape:window-width="1649"
     inkscape:window-height="643"
     inkscape:window-x="46"
     inkscape:window-y="235"
     inkscape:window-maximized="0" />
  <metadata
     id="metadata7">
    <rdf:RDF>
      <cc:Work
         rdf:about="">
        <dc:format>image/svg+xml</dc:format>
        <dc:type
           rdf:resource="http://purl.org/dc/dcmitype/StillImage" />
        <dc:title></dc:title>
      </cc:Work>
    </rdf:RDF>
  </metadata>
  <g
     inkscape:label="Layer 1"
     inkscape:groupmode="layer"
     id="layer1">
    <rect
       style="fill:#e6e6e6;fill-rule:evenodd;stroke:#000000;stroke-width:0.35978571px;stroke-linecap:butt;stroke-linejoin:miter;stroke-opacity:1"
       id="rect2985"
       width="220.64024"
       height="32.068783"
       x="76.822754"
       y="72.042076" />
    <path
       sodipodi:type="arc"
       style="fill:#ff0000"
       id="path3755"
       sodipodi:cx="120.37743"
       sodipodi:cy="89.342743"
       sodipodi:rx="4.7480655"
       sodipodi:ry="4.4687676"
       d="m 125.1255,89.342743 a 4.7480655,4.4687676 0 1 1 -9.49613,0 4.7480655,4.4687676 0 1 1 9.49613,0 z"
       transform="translate(-43.570485,-1.2662754)" />
    <path
       sodipodi:type="arc"
       style="fill:#ff0000"
       id="path3755-0"
       sodipodi:cx="120.37743"
       sodipodi:cy="89.342743"
       sodipodi:rx="4.7480655"
       sodipodi:ry="4.4687676"
       d="m 125.1255,89.342743 a 4.7480655,4.4687676 0 1 1 -9.49613,0 4.7480655,4.4687676 0 1 1 9.49613,0 z"
       transform="translate(-24.146582,-1.2662754)" />
    <path
       sodipodi:type="arc"
       style="fill:#ff0000"
       id="path3755-2"
       sodipodi:cx="120.37743"
       sodipodi:cy="89.342743"
       sodipodi:rx="4.7480655"
       sodipodi:ry="4.4687676"
       d="m 125.1255,89.342743 a 4.7480655,4.4687676 0 1 1 -9.49613,0 4.7480655,4.4687676 0 1 1 9.49613,0 z"
       transform="translate(-4.7226823,-1.2662754)" />
    <path
       sodipodi:type="arc"
       style="fill:#ff0000"
       id="path3755-10"
       sodipodi:cx="120.37743"
       sodipodi:cy="89.342743"
       sodipodi:rx="4.7480655"
       sodipodi:ry="4.4687676"
       d="m 125.1255,89.342743 a 4.7480655,4.4687676 0 1 1 -9.49613,0 4.7480655,4.4687676 0 1 1 9.49613,0 z"
       transform="translate(14.701233,-1.2662754)" />
    <path
       sodipodi:type="arc"
       style="fill:#ff0000"
       id="path3755-5"
       sodipodi:cx="120.37743"
       sodipodi:cy="89.342743"
       sodipodi:rx="4.7480655"
       sodipodi:ry="4.4687676"
       d="m 125.1255,89.342743 a 4.7480655,4.4687676 0 1 1 -9.49613,0 4.7480655,4.4687676 0 1 1 9.49613,0 z"
       transform="translate(34.125131,-1.2662754)" />
    <path
       sodipodi:type="arc"
       style="fill:#ff0000"
       id="path3755-11"
       sodipodi:cx="120.37743"
       sodipodi:cy="89.342743"
       sodipodi:rx="4.7480655"
       sodipodi:ry="4.4687676"
       d="m 125.1255,89.342743 a 4.7480655,4.4687676 0 1 1 -9.49613,0 4.7480655,4.4687676 0 1 1 9.49613,0 z"
       transform="translate(53.549055,-1.2662754)" />
    <path
       sodipodi:type="arc"
       style="fill:#ff0000"
       id="path3755-08"
       sodipodi:cx="120.37743"
       sodipodi:cy="89.342743"
       sodipodi:rx="4.7480655"
       sodipodi:ry="4.4687676"
       d="m 125.1255,89.342743 a 4.7480655,4.4687676 0 1 1 -9.49613,0 4.7480655,4.4687676 0 1 1 9.49613,0 z"
       transform="translate(72.972956,-1.2662754)" />
    <path
       sodipodi:type="arc"
       style="fill:#ff0000"
       id="path3755-50"
       sodipodi:cx="120.37743"
       sodipodi:cy="89.342743"
       sodipodi:rx="4.7480655"
       sodipodi:ry="4.4687676"
       d="m 125.1255,89.342743 a 4.7480655,4.4687676 0 1 1 -9.49613,0 4.7480655,4.4687676 0 1 1 9.49613,0 z"
       transform="translate(92.396859,-1.2662754)" />
    <path
       sodipodi:type="arc"
       style="fill:#ff0000"
       id="path3755-6"
       sodipodi:cx="120.37743"
       sodipodi:cy="89.342743"
       sodipodi:rx="4.7480655"
       sodipodi:ry="4.4687676"
       d="m 125.1255,89.342743 a 4.7480655,4.4687676 0 1 1 -9.49613,0 4.7480655,4.4687676 0 1 1 9.49613,0 z"
       transform="translate(111.82076,-1.2662754)" />
    <path
       sodipodi:type="arc"
       style="fill:#ff0000"
       id="path3755-6-6"
       sodipodi:cx="120.37743"
       sodipodi:cy="89.342743"
       sodipodi:rx="4.7480655"
       sodipodi:ry="4.4687676"
       d="m 125.1255,89.342743 a 4.7480655,4.4687676 0 1 1 -9.49613,0 4.7480655,4.4687676 0 1 1 9.49613,0 z"
       transform="translate(150.6686,-1.2662754)" />
    <path
       sodipodi:type="arc"
       style="fill:#ff0000"
       id="path3755-6-64"
       sodipodi:cx="120.37743"
       sodipodi:cy="89.342743"
       sodipodi:rx="4.7480655"
       sodipodi:ry="4.4687676"
       d="m 125.1255,89.342743 a 4.7480655,4.4687676 0 1 1 -9.49613,0 4.7480655,4.4687676 0 1 1 9.49613,0 z"
       transform="translate(131.24467,-1.2662754)" />
    <path
       sodipodi:type="arc"
       style="fill:#ff0000"
       id="path3755-6-6-9"
       sodipodi:cx="120.37743"
       sodipodi:cy="89.342743"
       sodipodi:rx="4.7480655"
       sodipodi:ry="4.4687676"
       d="m 125.1255,89.342743 a 4.7480655,4.4687676 0 1 1 -9.49613,0 4.7480655,4.4687676 0 1 1 9.49613,0 z"
       transform="translate(170.09247,-1.2662754)" />
  </g>
</svg>
